# xmcd CD database file
#
# Track frame offsets:
#	150
#	11039
#	23169
#	35148
#	46640
#	64393
#	74735
#	88412
#	102511
#	115211
#	123924
#	133009
#	146522
#	156937
#
# Disc length: 2328 seconds
#
# Revision: 0
# Processed by: cddbd v1.5.2PL0 Copyright (c) Steve Scherf et al.
# Submitted via: CDex 1.51
#
DISCID=d009160e
DTITLE=Tex Edwards and Out On Parole - Pardon Me, I've Got Someone To Kill
DYEAR=2007
DGENRE=Country
TTITLE0=I'm  A Gonna' Kill You
TTITLE1=L.S.D. Made A Wreck Outta' Me
TTITLE2=(Pardon Me) I've Got Someone To Kill
TTITLE3=The Girl On Death Row
TTITLE4=Psycho
TTITLE5=You Ain't Never Gonna' Live To Love Saturday Night Again
TTITLE6=Smitty
TTITLE7=The Cold Hard Facts Of Life
TTITLE8=Dolores
TTITLE9=Beatin' On The Bars
TTITLE10=Strangler In The Room
TTITLE11=The Rubber Room
TTITLE12=Country Hixes
TTITLE13=Last Will
EXTD=YEAR: 2007
EXTT0=
EXTT1=
EXTT2=
EXTT3=
EXTT4=
EXTT5=
EXTT6=
EXTT7=
EXTT8=
EXTT9=
EXTT10=
EXTT11=
EXTT12=
EXTT13=
PLAYORDER=
